<svg width="20" height="20" viewBox="0 0 18 18" xmlns="http://www.w3.org/2000/svg">
  <path fill="#4285F4" d="M17.64 9.2a10.34 10.34 0 0 0-.16-1.84H9v3.48h4.84a4.14 4.14 0 0 1-1.8 2.72v2.26h2.92a8.78 8.78 0 0 0 2.68-6.62z"/>
  <path fill="#34A853" d="M9 18a8.59 8.59 0 0 0 5.96-2.18l-2.92-2.26A5.43 5.43 0 0 1 9 14.5a5.42 5.42 0 0 1-5.09-3.74H.9v2.33A9 9 0 0 0 9 18z"/>
  <path fill="#FBBC05" d="M3.91 10.76A5.48 5.48 0 0 1 3.62 9c0-.61.11-1.21.29-1.76V4.91H.9A9 9 0 0 0 0 9a9 9 0 0 0 .9 4.09l3.01-2.33z"/>
  <path fill="#EA4335" d="M9 3.58a4.86 4.86 0 0 1 3.44 1.35l2.58-2.58A8.63 8.63 0 0 0 9 0 9 9 0 0 0 .9 4.91l3.01 2.33A5.42 5.42 0 0 1 9 3.58z"/>
</svg>