<svg version="1.2" xmlns="http://www.w3.org/2000/svg" viewBox="0 0 512 512" width="512" height="512"><style>.a{fill:#4d6453}.b{fill:#fff}</style><path fill-rule="evenodd" class="a" d="m68.6 0h374.8c37.9 0 68.6 30.7 68.6 68.6v374.8c0 37.9-30.7 68.6-68.6 68.6h-374.8c-37.9 0-68.6-30.7-68.6-68.6v-374.8c0-37.9 30.7-68.6 68.6-68.6z"/><path class="b" d="m125.5 286c24.5 36.8 66.1 77.4 130.5 120 64.4-42.6 106-83.2 130.5-120h-50.5q-1.5 0-2.9-0.4-1.5-0.5-2.7-1.3-1.2-0.9-2.2-2-0.9-1.2-1.5-2.6l-29.1-72.8-32 111.8c-0.6 2-1.7 3.8-3.4 5.1-1.6 1.3-3.6 2.1-5.7 2.2-2.1 0.1-4.1-0.5-5.9-1.6-1.7-1.1-3.1-2.7-3.9-4.7l-32.9-82.3-29.5 44.2q-0.7 1-1.6 1.8-0.9 0.8-2 1.4-1.1 0.6-2.3 0.9-1.2 0.3-2.4 0.3z"/><path class="b" d="m113.6 266c-66.1-126.4 70.6-200 138.9-137.1q1.8 1.6 3.5 3.4 0.4-0.5 0.8-0.9 0.5-0.4 0.9-0.9 0.4-0.4 0.9-0.8 0.4-0.4 0.9-0.8c68.3-62.9 205 10.7 138.9 137.1h-55.7l-37.4-93.7c-0.8-2-2.2-3.6-3.9-4.7-1.8-1.2-3.9-1.7-5.9-1.6-2.1 0.1-4.1 0.9-5.8 2.2-1.6 1.3-2.8 3.1-3.3 5.1l-32 111.8-29.1-72.8c-0.7-1.7-1.8-3.2-3.3-4.3-1.4-1.1-3.2-1.8-5-1.9-1.8-0.2-3.6 0.1-5.3 0.9-1.6 0.7-3 1.9-4 3.5l-37.1 55.5z"/></svg>